<?xml version="1.0" encoding="utf-8"?>
<!DOCTYPE svg PUBLIC "-//W3C//DTD SVG 1.1//EN" "http://www.w3.org/Graphics/SVG/1.1/DTD/svg11.dtd">
<svg style="width:308px;height:308px;" version="1.1" id="图形" xmlns="http://www.w3.org/2000/svg" xmlns:xlink="http://www.w3.org/1999/xlink" x="0px" y="0px" width="1026px" height="1024px" viewBox="0 0 1026 1024" enable-background="new 0 0 1026 1024" xml:space="preserve">
  <path class="svgpath" data-index="path_0" fill="#a9b7b7" d="M980.627163 668.00917l-757.75824 0c-24.618701 0-44.574195-19.957541-44.574195-44.574195 0-24.618701 19.955494-44.574195 44.574195-44.574195l757.75824 0c24.616654 0 44.574195 19.955494 44.574195 44.574195C1025.201357 648.052652 1005.243817 668.00917 980.627163 668.00917zM980.627163 445.13922l-757.75824 0c-24.618701 0-44.574195-19.957541-44.574195-44.574195 0-24.617677 19.955494-44.574195 44.574195-44.574195l757.75824 0c24.616654 0 44.574195 19.955494 44.574195 44.574195C1025.201357 425.182702 1005.243817 445.13922 980.627163 445.13922zM980.627163 222.269269l-757.75824 0c-24.618701 0-44.574195-19.957541-44.574195-44.574195 0-24.618701 19.955494-44.574195 44.574195-44.574195l757.75824 0c24.616654 0 44.574195 19.955494 44.574195 44.574195C1025.201357 202.312752 1005.243817 222.269269 980.627163 222.269269zM104.005768 913.164682 29.715785 913.164682c-16.411785 0-29.715789-13.304004-29.715789-29.714765l0-74.289983c0-16.411785 13.304004-29.715789 29.715789-29.715789l74.289983 0c16.411785 0 29.715789 13.304004 29.715789 29.715789l0 74.289983C133.721557 899.860678 120.417553 913.164682 104.005768 913.164682zM104.005768 690.296779 29.715785 690.296779c-16.411785 0-29.715789-13.305027-29.715789-29.715789l0-74.291007c0-16.410762 13.304004-29.714765 29.715789-29.714765l74.289983 0c16.411785 0 29.715789 13.304004 29.715789 29.714765l0 74.291007C133.721557 676.990728 120.417553 690.296779 104.005768 690.296779zM104.005768 467.426829 29.715785 467.426829c-16.411785 0-29.715789-13.304004-29.715789-29.715789l0-74.291007c0-16.410762 13.304004-29.714765 29.715789-29.714765l74.289983 0c16.411785 0 29.715789 13.304004 29.715789 29.714765l0 74.291007C133.721557 454.122825 120.417553 467.426829 104.005768 467.426829zM104.005768 244.556878 29.715785 244.556878c-16.411785 0-29.715789-13.304004-29.715789-29.717835l0-74.28896c0-16.411785 13.304004-29.715789 29.715789-29.715789l74.289983 0c16.411785 0 29.715789 13.304004 29.715789 29.715789l0 74.28896C133.721557 231.252875 120.417553 244.556878 104.005768 244.556878zM222.869946 801.731754l757.75824 0c24.616654 0 44.574195 19.955494 44.574195 44.574195 0 24.616654-19.957541 44.572148-44.574195 44.572148l-757.75824 0c-24.618701 0-44.574195-19.955494-44.574195-44.572148C178.295751 821.687248 198.251246 801.731754 222.869946 801.731754z" />

</svg>
